# xmcd CD database file
#
# Track frame offsets:
#	150
#	17854
#	36028
#	61450
#	77587
#	100853
#	120957
#	142293
#	169171
#	191360
#	213809
#	225399
#	250927
#	272843
#	296466
#	319872
#
# Disc length: 4661 seconds
#
# Revision: 1
# Processed by: cddbd v1.5.2PL0 Copyright (c) Steve Scherf et al.
# Submitted via: CDex 1.51
#
DISCID=db123310
DTITLE=Jazz Lips - Hotter Than That - CD7
DYEAR=2005
DGENRE=Jazz
TTITLE0=Runnin' Wild
TTITLE1=South Rampart Street Parade
TTITLE2=Float Me Down The River
TTITLE3=Mahogany Hall Stomp
TTITLE4=On A Mardi Gras Day
TTITLE5=Red Onion Blues
TTITLE6=Marching And Swinging
TTITLE7=Marie Laveau
TTITLE8=Go To The Mardi Gras
TTITLE9=Sleepy Time Down South
TTITLE10=Banjolie
TTITLE11=Toll Gate Blues
TTITLE12=Lead Me Savior
TTITLE13=A Hundred Years From Today
TTITLE14=Indian Red
TTITLE15=A Smooth One
EXTD=YEAR: 2005
EXTT0=
EXTT1=
EXTT2=
EXTT3=
EXTT4=
EXTT5=
EXTT6=
EXTT7=
EXTT8=
EXTT9=
EXTT10=
EXTT11=
EXTT12=
EXTT13=
EXTT14=
EXTT15=
PLAYORDER=
